<?xml version="1.0" encoding="utf-8"?>
<!-- Generator: Adobe Illustrator 22.1.0, SVG Export Plug-In . SVG Version: 6.00 Build 0)  -->
<svg version="1.1" xmlns="http://www.w3.org/2000/svg" xmlns:xlink="http://www.w3.org/1999/xlink" x="0px" y="0px"
	 viewBox="0 0 885.3 229" style="enable-background:new 0 0 885.3 229;" xml:space="preserve">
<style type="text/css">
	.st0{fill:#008A22;}
	.st1{fill:#D264B6;}
	.st2{fill:#A9ADEA;}
	.st3{fill:#F4CCC1;}
	.st4{display:none;}
	.st5{display:inline;fill:#EBEBEB;}
	.st6{fill:#05133A;}
	.st7{fill:#F2E4BB;}
	.st8{fill:#FAFAFA;}
	.st9{fill:#051314;}
	.st10{fill:#8E9FF4;}
	.st11{fill:#8ECEF4;}
	.st12{fill:#08004A;}
	.st13{fill:#00559B;}
	.st14{fill:#4ACB3B;}
	.st15{fill:#305BD6;}
	.st16{opacity:0.8;fill:#FFFFFF;}
	.st17{fill:#7DE9FF;}
	.st18{opacity:0.21;fill:#FFFFFF;}
	.st19{opacity:0.2;}
	.st20{fill:#1E8A00;}
	.st21{fill:#000122;}
	.st22{fill:#74DCF4;}
	.st23{opacity:0.8;}
	.st24{fill:#FFA83A;}
	.st25{fill:#D8FF2A;}
	.st26{opacity:0.3;}
	.st27{fill:#FFFFFF;}
	.st28{fill:#62CCCC;}
	.st29{fill:#E89FF4;}
	.st30{fill:#FFB2FF;stroke:#E0E0E0;stroke-width:0.2364;stroke-miterlimit:10;}
	.st31{fill:#2A315D;stroke:#E0E0E0;stroke-width:0.2364;stroke-miterlimit:10;}
	.st32{fill:#FAD4CB;stroke:#E0E0E0;stroke-width:0.2364;stroke-miterlimit:10;}
	.st33{fill:#FFFFFF;stroke:#E0E0E0;stroke-width:0.2364;stroke-miterlimit:10;}
	.st34{fill:#F4F4F4;stroke:#E0E0E0;stroke-width:0.2364;stroke-miterlimit:10;}
	.st35{fill:#D264B6;stroke:#E0E0E0;stroke-width:0.2364;stroke-miterlimit:10;}
	.st36{fill:#FADC74;stroke:#E0E0E0;stroke-width:0.2364;stroke-miterlimit:10;}
	.st37{fill:#E0E0E0;stroke:#E0E0E0;stroke-width:0.2364;stroke-miterlimit:10;}
	.st38{fill:#FE7A42;stroke:#E0E0E0;stroke-width:0.2364;stroke-miterlimit:10;}
	.st39{fill:#11141B;stroke:#E0E0E0;stroke-width:0.2364;stroke-miterlimit:10;}
	.st40{fill:#171B23;stroke:#E0E0E0;stroke-width:0.2364;stroke-miterlimit:10;}
	.st41{fill:#552226;stroke:#E0E0E0;stroke-width:0.2364;stroke-miterlimit:10;}
	.st42{fill:#7A92CE;stroke:#E0E0E0;stroke-width:0.2364;stroke-miterlimit:10;}
	.st43{fill:#421A1F;stroke:#E0E0E0;stroke-width:0.2364;stroke-miterlimit:10;}
	.st44{fill:#0A0C0F;stroke:#E0E0E0;stroke-width:0.2364;stroke-miterlimit:10;}
	.st45{fill:#FF8155;stroke:#E0E0E0;stroke-width:0.2364;stroke-miterlimit:10;}
	.st46{fill:#191D26;stroke:#E0E0E0;stroke-width:0.2364;stroke-miterlimit:10;}
	.st47{fill:#FBF8D7;stroke:#E0E0E0;stroke-width:0.2364;stroke-miterlimit:10;}
	.st48{fill:#FBF8F7;stroke:#E0E0E0;stroke-width:0.2364;stroke-miterlimit:10;}
	.st49{fill:#857BAF;stroke:#E0E0E0;stroke-width:0.2364;stroke-miterlimit:10;}
	.st50{fill:#D4521E;stroke:#E0E0E0;stroke-width:0.2364;stroke-miterlimit:10;}
	.st51{fill:#FF5C00;stroke:#E0E0E0;stroke-width:0.2364;stroke-miterlimit:10;}
	.st52{fill:#E2CE87;stroke:#E0E0E0;stroke-width:0.2003;stroke-miterlimit:10;}
	.st53{fill:#FFFFFF;stroke:#E0E0E0;stroke-width:0.2003;stroke-miterlimit:10;}
	.st54{fill:#6B6299;stroke:#E0E0E0;stroke-width:0.2003;stroke-miterlimit:10;}
	.st55{fill:#E0DCAD;stroke:#E0E0E0;stroke-width:0.2003;stroke-miterlimit:10;}
	.st56{fill:#2D336D;stroke:#E0E0E0;stroke-width:0.2003;stroke-miterlimit:10;}
	.st57{fill:#171B23;stroke:#E0E0E0;stroke-width:0.2003;stroke-miterlimit:10;}
	.st58{fill:#2E3642;stroke:#E0E0E0;stroke-width:0.2003;stroke-miterlimit:10;}
	.st59{fill:#D264B6;stroke:#E0E0E0;stroke-width:0.2003;stroke-miterlimit:10;}
	.st60{fill:#010120;stroke:#E0E0E0;stroke-width:0.2003;stroke-miterlimit:10;}
	.st61{fill:#3B4382;stroke:#E0E0E0;stroke-width:0.2003;stroke-miterlimit:10;}
	.st62{fill:#335C33;}
	.st63{fill:#33CC33;}
	.st64{fill:#2AB9D6;stroke:#E0E0E0;stroke-width:0.2003;stroke-miterlimit:10;}
	.st65{fill:#C7C6CC;stroke:#E0E0E0;stroke-width:0.2003;stroke-miterlimit:10;}
	.st66{fill:#7A92CE;stroke:#E0E0E0;stroke-width:0.2;stroke-miterlimit:10;}
	.st67{fill:#7A92CE;stroke:#E0E0E0;stroke-width:0.2003;stroke-miterlimit:10;}
	.st68{fill:#11141B;stroke:#E0E0E0;stroke-width:0.2003;stroke-miterlimit:10;}
	.st69{fill:#EBF8D7;stroke:#E0E0E0;stroke-width:0.2003;stroke-miterlimit:10;}
	.st70{fill:#DA12C3;stroke:#E0E0E0;stroke-width:0.2003;stroke-miterlimit:10;}
	.st71{fill:#FE7A42;stroke:#E0E0E0;stroke-width:0.2003;stroke-miterlimit:10;}
	.st72{fill:#B21D28;stroke:#E0E0E0;stroke-width:0.2003;stroke-miterlimit:10;}
	.st73{fill:#FBF8F7;stroke:#E0E0E0;stroke-width:0.2003;stroke-miterlimit:10;}
	.st74{fill:#B3C6C5;stroke:#E0E0E0;stroke-width:0.2003;stroke-miterlimit:10;}
	.st75{fill:#C9D5FF;stroke:#E0E0E0;stroke-width:0.2003;stroke-miterlimit:10;}
	.st76{fill:#FFB2FF;stroke:#E0E0E0;stroke-width:0.2003;stroke-miterlimit:10;}
	.st77{fill:#FADC74;stroke:#E0E0E0;stroke-width:0.2003;stroke-miterlimit:10;}
	.st78{fill:#DB2C39;stroke:#E0E0E0;stroke-width:0.2003;stroke-miterlimit:10;}
	.st79{fill:#F3FFFE;stroke:#E0E0E0;stroke-width:0.2003;stroke-miterlimit:10;}
</style>
<g id="Background_Complete">
</g>
<g id="Background_Simple" class="st4">
</g>
<g id="Floor">
</g>
<g id="Character">
</g>
<g id="Plant">
</g>
<g id="Graduated_Cylinders">
	<g>
		<g>
			<g>
				<path class="st13" d="M666.4,216.7h7.2c5,0,9-3.4,9-7.5v-60.1h-25.2v60.1C657.4,213.3,661.4,216.7,666.4,216.7z"/>
			</g>
			<g>
				<rect x="657.4" y="137.9" class="st13" width="25.2" height="11.2"/>
			</g>
			<g>
				<path class="st13" d="M686.4,148.2c0,1.5-1.5,2.7-3.3,2.7h-26.4c-1.8,0-3.3-1.2-3.3-2.7l0,0c0-1.5,1.5-2.7,3.3-2.7h26.4
					C684.9,145.5,686.4,146.7,686.4,148.2L686.4,148.2z"/>
			</g>
			<g>
				<path class="st13" d="M686.4,137.7c0,1.5-1.5,2.7-3.3,2.7h-26.4c-1.8,0-3.3-1.2-3.3-2.7l0,0c0-1.5,1.5-2.7,3.3-2.7h26.4
					C684.9,135,686.4,136.2,686.4,137.7L686.4,137.7z"/>
			</g>
		</g>
		<g>
			<g>
				<path class="st13" d="M666.4,216.7h7.2c5,0,9-3.4,9-7.5v-60.1h-25.2v60.1C657.4,213.3,661.4,216.7,666.4,216.7z"/>
			</g>
			<g>
				<rect x="657.4" y="137.9" class="st13" width="25.2" height="11.2"/>
			</g>
			<g>
				<path class="st13" d="M686.4,148.2c0,1.5-1.5,2.7-3.3,2.7h-26.4c-1.8,0-3.3-1.2-3.3-2.7l0,0c0-1.5,1.5-2.7,3.3-2.7h26.4
					C684.9,145.5,686.4,146.7,686.4,148.2L686.4,148.2z"/>
			</g>
			<g>
				<path class="st13" d="M686.4,137.7c0,1.5-1.5,2.7-3.3,2.7h-26.4c-1.8,0-3.3-1.2-3.3-2.7l0,0c0-1.5,1.5-2.7,3.3-2.7h26.4
					C684.9,135,686.4,136.2,686.4,137.7L686.4,137.7z"/>
			</g>
		</g>
		<g>
			<g>
				<path class="st13" d="M812.2,185.2c0,16.6-16.1,30.1-36,30.1c-19.9,0-36-13.5-36-30.1c0-16.6,16.1-30.1,36-30.1
					C796.1,155.1,812.2,168.6,812.2,185.2z"/>
			</g>
			<g>
				<rect x="763.7" y="123" class="st13" width="25.1" height="62.2"/>
			</g>
			<g>
				<path class="st13" d="M793.4,125.3c0,2.2-2.1,4-4.8,4h-26c-2.6,0-4.8-1.8-4.8-4v-2.2c0-2.2,2.1-4,4.8-4h26c2.6,0,4.8,1.8,4.8,4
					V125.3z"/>
			</g>
		</g>
		<g>
			<path class="st30" d="M693.8,158.6c0,3.7-3.6,6.7-8.1,6.7c-4.5,0-8.1-3-8.1-6.7c0-3.7,3.6-6.7,8.1-6.7
				C690.2,151.9,693.8,154.9,693.8,158.6z"/>
		</g>
		<g>
			<path class="st30" d="M712.4,160.1c0,5.4-5.2,9.8-11.7,9.8c-6.5,0-11.7-4.4-11.7-9.8c0-5.4,5.2-9.8,11.7-9.8
				C707.2,150.4,712.4,154.7,712.4,160.1z"/>
		</g>
		<g>
			<path class="st30" d="M733,157.6c0,5.4-5.2,9.8-11.7,9.8c-6.5,0-11.7-4.4-11.7-9.8c0-5.4,5.2-9.8,11.7-9.8
				C727.7,147.8,733,152.2,733,157.6z"/>
		</g>
		<g>
			<rect x="727.2" y="93.7" class="st31" width="79" height="4.2"/>
		</g>
		<g>
			<rect x="742.6" y="207.5" class="st32" width="91" height="8.4"/>
		</g>
		<g>
			<rect x="809.5" y="78.2" class="st33" width="8.7" height="72.1"/>
		</g>
		<g>
			<rect x="809.5" y="78.2" class="st34" width="4.4" height="72.1"/>
		</g>
		<g>
			<path class="st31" d="M823.6,199.1c0,3.1-3,5.6-6.7,5.6h-5.4c-3.7,0-6.7-2.5-6.7-5.6v-56.5c0-3.1,3-5.6,6.7-5.6h5.4
				c3.7,0,6.7,2.5,6.7,5.6V199.1z"/>
		</g>
		<g>
			<rect x="806.2" y="76.6" class="st31" width="15.3" height="4.5"/>
		</g>
		<g>
			<g>
				<path class="st33" d="M820.2,145.1c0,2.8-2.7,5.1-6.1,5.1c-3.3,0-6-2.3-6-5.1c0-2.8,2.7-5.1,6-5.1
					C817.5,140.1,820.2,142.3,820.2,145.1z"/>
			</g>
		</g>
		<g>
			<path class="st35" d="M816.8,145.1c0,1.2-1.2,2.2-2.6,2.2c-1.4,0-2.6-1-2.6-2.2c0-1.2,1.2-2.2,2.6-2.2
				C815.6,143,816.8,143.9,816.8,145.1z"/>
		</g>
		<g>
			<rect x="757.3" y="196.4" class="st7" width="70.9" height="11.1"/>
		</g>
		<g>
			<rect x="757.3" y="201.9" class="st7" width="70.9" height="5.5"/>
		</g>
		<g>
			<rect x="799.5" y="92.1" class="st33" width="28.8" height="7.5"/>
		</g>
		<g>
			<rect x="799.5" y="95.9" class="st34" width="28.8" height="3.7"/>
		</g>
		<g>
			<polygon class="st33" points="730.5,215 674.7,215 674.7,165.9 669.9,157.6 735.3,157.6 730.5,165.9 			"/>
		</g>
		<g>
			<rect x="681.2" y="170.7" class="st30" width="42.8" height="39.4"/>
		</g>
		<g>
			<path class="st36" d="M699,174.1c0,3-3,5.5-6.6,5.5c-3.6,0-6.6-2.5-6.6-5.5c0-3,3-5.5,6.6-5.5C696,168.6,699,171.1,699,174.1z"/>
		</g>
		<g>
			<path class="st30" d="M698,175.9c0,2.8-2.7,5.1-6.1,5.1c-3.4,0-6.1-2.3-6.1-5.1c0-2.8,2.7-5.1,6.1-5.1
				C695.2,170.8,698,173.1,698,175.9z"/>
		</g>
		<g>
			<path class="st37" d="M721.3,182.5c0,3-3,5.5-6.6,5.5c-3.6,0-6.6-2.5-6.6-5.5c0-3,3-5.5,6.6-5.5
				C718.3,177,721.3,179.4,721.3,182.5z"/>
		</g>
		<g>
			<path class="st36" d="M700.8,193.8c0,1.9-1.9,3.5-4.2,3.5c-2.3,0-4.2-1.6-4.2-3.5c0-1.9,1.9-3.5,4.2-3.5
				C698.9,190.3,700.8,191.9,700.8,193.8z"/>
		</g>
		<g>
			<path class="st36" d="M713.2,170.7c0,1.9-1.9,3.5-4.2,3.5c-2.3,0-4.2-1.6-4.2-3.5c0-1.9,1.9-3.5,4.2-3.5
				C711.4,167.2,713.2,168.8,713.2,170.7z"/>
		</g>
		<g>
			<path class="st36" d="M710.7,160.9c0,1.2-1.2,2.2-2.6,2.2c-1.4,0-2.6-1-2.6-2.2s1.2-2.2,2.6-2.2
				C709.5,158.8,710.7,159.7,710.7,160.9z"/>
		</g>
		<g>
			<path class="st36" d="M711.6,197.3c0,1.2-1.2,2.2-2.6,2.2c-1.4,0-2.6-1-2.6-2.2c0-1.2,1.2-2.2,2.6-2.2
				C710.5,195.1,711.6,196.1,711.6,197.3z"/>
		</g>
		<g>
			<path class="st36" d="M694.5,184.6c0,1.2-1.2,2.2-2.6,2.2s-2.6-1-2.6-2.2c0-1.2,1.2-2.2,2.6-2.2S694.5,183.4,694.5,184.6z"/>
		</g>
		<g>
			<path class="st36" d="M720.5,204.7c0,1.8-1.8,3.3-4,3.3c-2.2,0-4-1.5-4-3.3c0-1.8,1.8-3.3,4-3.3
				C718.7,201.4,720.5,202.8,720.5,204.7z"/>
		</g>
		<g>
			<path class="st30" d="M719.9,205.7c0,1.7-1.6,3.1-3.7,3.1c-2,0-3.7-1.4-3.7-3.1c0-1.7,1.6-3.1,3.7-3.1
				C718.3,202.7,719.9,204.1,719.9,205.7z"/>
		</g>
		<g>
			<g>
				<rect x="647" y="214.2" class="st7" width="207.3" height="5.1"/>
			</g>
		</g>
		<g>
			<g>
				<g>
					<path class="st38" d="M713.9,64.2c0,0-5.1-1.9-6.2-1.3c-0.9,0.5-3.1,3.5,5.8,3.2L713.9,64.2z"/>
				</g>
			</g>
			<g>
				<g>
					<path class="st33" d="M756,53.5l-10.2,19.4l-33-6.6l0.5-2.3l26.3,1.7l10.2-16.9c0,0,5.3-7.3,8-3.7
						C759.2,46.9,758.1,49.4,756,53.5z"/>
				</g>
			</g>
		</g>
		<g>
			<g>
				<path class="st39" d="M758.2,33.9c0,0,4.3,0.3,5.3,2.6c1,2.3,2.3,3.5,5.8,5c3.5,1.5,9,4.2,8.8,7.1c-0.3,4.5,3.7,6.4,2.6,9
					c-1.1,2.5-4.9,1.7-6.2,0.6c-1.3-1.1-10.4-6.4-11.9-8.6c-1.5-2.1-4.8-0.3-6.5-1.7c-1.7-1.4-1.1-3.9-1.9-4.7
					c-2.9-2.9-1.6-5.8,0.4-7.9C756.3,33.1,758.2,33.9,758.2,33.9z"/>
			</g>
		</g>
		<g>
			<g>
				<path class="st39" d="M780,74.9l-28.1,1.9L719,80.7c0,0-7.2,0.2-6.7,15.6l-0.5,27.9l3.8,0c0,0,6.8-19.5,8.4-33.5
					c0,0,29.1,1.5,39-2.1C772.8,85,782.2,76,780,74.9z"/>
			</g>
		</g>
		<g>
			<g>
				<path class="st40" d="M780,75.1l-51.3,13c0,0-6.9,1.4-1.1,16.9l8.8,28.6l3.8-1c0,0,0-20.7-2.5-35.3c0,0,27.5-1,39.2-4.9
					C787.3,88.8,783.6,79.3,780,75.1z"/>
			</g>
		</g>
		<g>
			<g>
				<path class="st41" d="M770.2,44.9c0,0,3.4,2,5.9,7.8c2.5,5.7,0.8,13.9,0.8,13.9l4.9,11l-29.8-0.7L750,66.6l2.6-4.4l-2.9-3.9
					l5-13.7L770.2,44.9z"/>
			</g>
		</g>
		<g>
			<g>
				<polygon class="st42" points="740.7,131.5 735.1,132.4 735.8,135.6 735.1,137.1 727.9,143.2 729.9,142.7 737.7,139.7 738.5,140 
					741.5,139.2 				"/>
			</g>
		</g>
		<g>
			<g>
				<polygon class="st42" points="716.1,123.1 710.7,122.2 710,125.2 708.7,126.4 699.6,129.6 701.6,129.7 709.8,129.5 710.4,130 
					713.4,130.2 				"/>
			</g>
		</g>
		<g>
			<g>
				<polygon class="st43" points="752.7,62.1 766,62.9 751,59.9 				"/>
			</g>
		</g>
		<g>
			<g>
				<polygon class="st44" points="742.3,97 735.8,93.5 736.5,95.6 736.9,103.3 738.9,106.1 737.7,97.2 				"/>
			</g>
		</g>
		<g>
			<g>
				<polygon class="st44" points="724.5,90.8 724,90.8 722.6,99.1 721.5,92.2 721.1,88.2 726,90.7 				"/>
			</g>
		</g>
		<g>
			<g>
				<path class="st38" d="M761.1,40.1l3.4,4.6c0,0-5.8,6.3-6,3.6c-0.2-2.5-1.4-7.2-1.4-7.2L761.1,40.1z"/>
			</g>
		</g>
		<g>
			<g>
				<path class="st45" d="M759,34.4c0.9,0.9,2.5,2.6,2.3,4.2c-0.2,1.5-0.4,4.2-2,5.2c-1.6,1-2.7-0.6-3.3-1c-0.6-0.5-3.6-5.9-1.2-8
					C756.7,33.1,758.3,33.7,759,34.4z"/>
			</g>
		</g>
		<g>
			<g>
				<path class="st46" d="M756.4,35.7c0,0,2.8,2.6,5.5,2.6c0,0-1.3-4.8-5-4.6c0,0-4.2,0.8-3.1,5.2C753.8,39,756.7,37.3,756.4,35.7z"
					/>
			</g>
		</g>
		<g>
			<path class="st47" d="M770.2,44.9c0,0,7.9,7.5,10.2,16.4c2.2,9,8.2,18.6,3.4,28.2c-2.8,5.8-34,7-34,7L739,85.4l25.5-6.4
				l-2.6-21.2L770.2,44.9z"/>
		</g>
		<g>
			<polygon class="st48" points="757.1,44.6 753.9,58 754.5,63.8 753.9,76.8 739,78.3 746.8,66.9 746,58.2 754.7,44.5 			"/>
		</g>
		<g>
			<path class="st30" d="M700,157.6l-6.9,0c0-0.8,0.4-77.2,0.1-84.6c-0.2-5.2,2.2-7.9,4.3-9.3c5.3-3.5,12.9-2,13.8-1.8l-1.7,5.6
				c-1.3-0.3-5.6-0.8-7.7,0.7c-1.2,0.8-1.8,2.4-1.7,4.6C700.4,80.3,700,154.4,700,157.6z"/>
		</g>
		<g>
			<g>
				<path class="st49" d="M766.7,90.4l2.2-3.7c1.5-2.6,0.2-5.7-2.9-7l-44.8-18.2l-7.6,13.1l44.8,18.2
					C761.4,94,765.2,92.9,766.7,90.4z"/>
			</g>
			<g>
				<polygon class="st50" points="721.2,61.5 713.6,74.6 705.2,71.2 712.8,58.1 				"/>
			</g>
			<g>
				<path class="st51" d="M721.7,59.2c1.1,0.5,1.6,1.6,1.1,2.5l-8,13.8c-0.5,0.9-1.9,1.3-3,0.9l0,0c-1.1-0.5-1.6-1.6-1.1-2.5l8-13.8
					C719.2,59.2,720.5,58.8,721.7,59.2L721.7,59.2z"/>
			</g>
			<g>
				<path class="st51" d="M713.8,56.1c1.1,0.5,1.6,1.6,1.1,2.5l-8,13.8c-0.5,0.9-1.9,1.3-3,0.9l0,0c-1.1-0.5-1.6-1.6-1.1-2.5l8-13.8
					C711.3,56,712.7,55.6,713.8,56.1L713.8,56.1z"/>
			</g>
		</g>
		<g>
			<g>
				<g>
					<path class="st38" d="M751.3,83.2c0,0-5.2,1.9-5.3,2.9c-0.2,0.9,1.1,4.2,6.7-1.4L751.3,83.2z"/>
				</g>
			</g>
			<g>
				<g>
					<path class="st33" d="M777,54l5.9,20.7l-31.6,10.5l-0.9-1.6l22.4-11.7l-3.7-18.6c0,0-1.9-6.2,3.2-6.9
						C772.4,46.4,775.8,49.8,777,54z"/>
				</g>
			</g>
		</g>
	</g>
	<g>
		<g>
			<g>
				<path class="st13" d="M101.2,185.7c0,12.7,10.3,23,23,23c12.7,0,23-10.3,23-23c0-12.7-10.3-23-23-23
					C111.5,162.8,101.2,173,101.2,185.7z"/>
			</g>
			<g>
				<rect x="116.2" y="138.2" class="st13" width="16" height="47.5"/>
			</g>
			<g>
				<path class="st13" d="M113.2,140c0,1.7,1.4,3,3,3h16.6c1.7,0,3-1.4,3-3v-1.7c0-1.7-1.4-3-3-3h-16.6c-1.7,0-3,1.4-3,3V140z"/>
			</g>
		</g>
		<g>
			<g>
				<path class="st13" d="M169.4,176.8c0,22,17.8,39.8,39.8,39.8c22,0,39.8-17.8,39.8-39.8c0-22-17.8-39.8-39.8-39.8
					C187.2,137,169.4,154.8,169.4,176.8z"/>
			</g>
			<g>
				<rect x="195.3" y="94.5" class="st13" width="27.7" height="82.2"/>
			</g>
			<g>
				<path class="st13" d="M190.1,97.6c0,2.9,2.4,5.3,5.3,5.3h28.8c2.9,0,5.3-2.4,5.3-5.3v-2.9c0-2.9-2.4-5.3-5.3-5.3h-28.8
					c-2.9,0-5.3,2.4-5.3,5.3V97.6z"/>
			</g>
		</g>
		<g>
			<g>
				<g>
					<path class="st52" d="M122.4,50.7c0,0,2.9-3.7,4-3.5c0.9,0.1,3.9,1.9-2.8,5L122.4,50.7z"/>
				</g>
			</g>
			<g>
				<g>
					<path class="st53" d="M86.3,57.1l16.4,13.3l21.5-18.4l-1.5-1.9L104,61.7L88.8,50.7c0,0-6.7-4.9-7.3-0.7
						C81.1,52.1,83,54.3,86.3,57.1z"/>
				</g>
			</g>
		</g>
		<g>
			<g>
				<path class="st54" d="M85.4,210.1c0,3,0.9,5.4,1.9,5.4l0,0c1.1,0,1.9-2.4,1.9-5.4v-125c0-3-0.9-5.4-1.9-5.4l0,0
					c-1.1,0-1.9,2.4-1.9,5.4V210.1z"/>
			</g>
			<g>
				<path class="st54" d="M70.8,210.1c0,3,0.9,5.4,1.9,5.4l0,0c1.1,0,1.9-2.4,1.9-5.4v-125c0-3-0.9-5.4-1.9-5.4l0,0
					c-1.1,0-1.9,2.4-1.9,5.4V210.1z"/>
			</g>
			<g>
				<path class="st54" d="M72.7,91c0,0.9,1.2,1.6,2.6,1.6h9.4c1.5,0,2.6-0.7,2.6-1.6l0,0c0-0.9-1.2-1.6-2.6-1.6h-9.4
					C73.9,89.5,72.7,90.2,72.7,91L72.7,91z"/>
			</g>
			<g>
				<path class="st54" d="M72.7,101.9c0,0.9,1.2,1.6,2.6,1.6h9.4c1.5,0,2.6-0.7,2.6-1.6l0,0c0-0.9-1.2-1.6-2.6-1.6h-9.4
					C73.9,100.3,72.7,101,72.7,101.9L72.7,101.9z"/>
			</g>
			<g>
				<path class="st54" d="M72.7,114.5c0,0.9,1.2,1.6,2.6,1.6h9.4c1.5,0,2.6-0.7,2.6-1.6l0,0c0-0.9-1.2-1.6-2.6-1.6h-9.4
					C73.9,113,72.7,113.7,72.7,114.5L72.7,114.5z"/>
			</g>
			<g>
				<path class="st54" d="M72.7,125.4c0,0.9,1.2,1.6,2.6,1.6h9.4c1.5,0,2.6-0.7,2.6-1.6l0,0c0-0.9-1.2-1.6-2.6-1.6h-9.4
					C73.9,123.8,72.7,124.5,72.7,125.4L72.7,125.4z"/>
			</g>
			<g>
				<path class="st54" d="M72.7,137.1c0,0.9,1.2,1.6,2.6,1.6h9.4c1.5,0,2.6-0.7,2.6-1.6l0,0c0-0.9-1.2-1.6-2.6-1.6h-9.4
					C73.9,135.6,72.7,136.3,72.7,137.1L72.7,137.1z"/>
			</g>
			<g>
				<path class="st54" d="M72.7,148c0,0.9,1.2,1.6,2.6,1.6h9.4c1.5,0,2.6-0.7,2.6-1.6l0,0c0-0.9-1.2-1.6-2.6-1.6h-9.4
					C73.9,146.4,72.7,147.1,72.7,148L72.7,148z"/>
			</g>
			<g>
				<path class="st54" d="M72.7,160.7c0,0.9,1.2,1.6,2.6,1.6h9.4c1.5,0,2.6-0.7,2.6-1.6l0,0c0-0.9-1.2-1.6-2.6-1.6h-9.4
					C73.9,159.1,72.7,159.8,72.7,160.7L72.7,160.7z"/>
			</g>
			<g>
				<path class="st54" d="M72.7,171.5c0,0.9,1.2,1.6,2.6,1.6h9.4c1.5,0,2.6-0.7,2.6-1.6l0,0c0-0.9-1.2-1.6-2.6-1.6h-9.4
					C73.9,169.9,72.7,170.6,72.7,171.5L72.7,171.5z"/>
			</g>
			<g>
				<path class="st54" d="M72.7,185.1c0,0.9,1.2,1.6,2.6,1.6h9.4c1.5,0,2.6-0.7,2.6-1.6l0,0c0-0.9-1.2-1.6-2.6-1.6h-9.4
					C73.9,183.5,72.7,184.2,72.7,185.1L72.7,185.1z"/>
			</g>
			<g>
				<path class="st54" d="M72.7,195.9c0,0.9,1.2,1.6,2.6,1.6h9.4c1.5,0,2.6-0.7,2.6-1.6l0,0c0-0.9-1.2-1.6-2.6-1.6h-9.4
					C73.9,194.3,72.7,195,72.7,195.9L72.7,195.9z"/>
			</g>
			<g>
				<path class="st54" d="M72.7,207.7c0,0.9,1.2,1.6,2.6,1.6h9.4c1.5,0,2.6-0.7,2.6-1.6l0,0c0-0.9-1.2-1.6-2.6-1.6h-9.4
					C73.9,206.1,72.7,206.8,72.7,207.7L72.7,207.7z"/>
			</g>
		</g>
		<g>
			<g>
				<path class="st55" d="M86.4,210.1c0,3,0.9,5.4,1.9,5.4l0,0c1.1,0,1.9-2.4,1.9-5.4v-125c0-3-0.9-5.4-1.9-5.4l0,0
					c-1.1,0-1.9,2.4-1.9,5.4V210.1z"/>
			</g>
			<g>
				<path class="st55" d="M71.7,210.1c0,3,0.9,5.4,1.9,5.4l0,0c1.1,0,1.9-2.4,1.9-5.4v-125c0-3-0.9-5.4-1.9-5.4l0,0
					c-1.1,0-1.9,2.4-1.9,5.4V210.1z"/>
			</g>
			<g>
				<path class="st55" d="M73.6,91c0,0.9,1.2,1.6,2.6,1.6h9.4c1.5,0,2.6-0.7,2.6-1.6l0,0c0-0.9-1.2-1.6-2.6-1.6h-9.4
					C74.8,89.5,73.6,90.2,73.6,91L73.6,91z"/>
			</g>
			<g>
				<path class="st55" d="M73.6,101.9c0,0.9,1.2,1.6,2.6,1.6h9.4c1.5,0,2.6-0.7,2.6-1.6l0,0c0-0.9-1.2-1.6-2.6-1.6h-9.4
					C74.8,100.3,73.6,101,73.6,101.9L73.6,101.9z"/>
			</g>
			<g>
				<path class="st55" d="M73.6,114.5c0,0.9,1.2,1.6,2.6,1.6h9.4c1.5,0,2.6-0.7,2.6-1.6l0,0c0-0.9-1.2-1.6-2.6-1.6h-9.4
					C74.8,113,73.6,113.7,73.6,114.5L73.6,114.5z"/>
			</g>
			<g>
				<path class="st55" d="M73.6,125.4c0,0.9,1.2,1.6,2.6,1.6h9.4c1.5,0,2.6-0.7,2.6-1.6l0,0c0-0.9-1.2-1.6-2.6-1.6h-9.4
					C74.8,123.8,73.6,124.5,73.6,125.4L73.6,125.4z"/>
			</g>
			<g>
				<path class="st55" d="M73.6,137.1c0,0.9,1.2,1.6,2.6,1.6h9.4c1.5,0,2.6-0.7,2.6-1.6l0,0c0-0.9-1.2-1.6-2.6-1.6h-9.4
					C74.8,135.6,73.6,136.3,73.6,137.1L73.6,137.1z"/>
			</g>
			<g>
				<path class="st55" d="M73.6,148c0,0.9,1.2,1.6,2.6,1.6h9.4c1.5,0,2.6-0.7,2.6-1.6l0,0c0-0.9-1.2-1.6-2.6-1.6h-9.4
					C74.8,146.4,73.6,147.1,73.6,148L73.6,148z"/>
			</g>
			<g>
				<path class="st55" d="M73.6,160.7c0,0.9,1.2,1.6,2.6,1.6h9.4c1.5,0,2.6-0.7,2.6-1.6l0,0c0-0.9-1.2-1.6-2.6-1.6h-9.4
					C74.8,159.1,73.6,159.8,73.6,160.7L73.6,160.7z"/>
			</g>
			<g>
				<path class="st55" d="M73.6,171.5c0,0.9,1.2,1.6,2.6,1.6h9.4c1.5,0,2.6-0.7,2.6-1.6l0,0c0-0.9-1.2-1.6-2.6-1.6h-9.4
					C74.8,169.9,73.6,170.6,73.6,171.5L73.6,171.5z"/>
			</g>
			<g>
				<path class="st55" d="M73.6,185.1c0,0.9,1.2,1.6,2.6,1.6h9.4c1.5,0,2.6-0.7,2.6-1.6l0,0c0-0.9-1.2-1.6-2.6-1.6h-9.4
					C74.8,183.5,73.6,184.2,73.6,185.1L73.6,185.1z"/>
			</g>
			<g>
				<path class="st55" d="M73.6,195.9c0,0.9,1.2,1.6,2.6,1.6h9.4c1.5,0,2.6-0.7,2.6-1.6l0,0c0-0.9-1.2-1.6-2.6-1.6h-9.4
					C74.8,194.3,73.6,195,73.6,195.9L73.6,195.9z"/>
			</g>
			<g>
				<path class="st55" d="M73.6,207.7c0,0.9,1.2,1.6,2.6,1.6h9.4c1.5,0,2.6-0.7,2.6-1.6l0,0c0-0.9-1.2-1.6-2.6-1.6h-9.4
					C74.8,206.1,73.6,206.8,73.6,207.7L73.6,207.7z"/>
			</g>
		</g>
		<g>
			<g>
				<polygon class="st56" points="94.6,212 181.9,212 181.9,198.4 102.1,184.8 				"/>
			</g>
		</g>
		<g>
			<g>
				<rect x="102.1" y="184.8" class="st57" width="49.6" height="13.6"/>
			</g>
		</g>
		<g>
			<g>
				<rect x="102.1" y="184.8" class="st58" width="49.6" height="4.2"/>
			</g>
		</g>
		<g>
			<g>
				<path class="st59" d="M123.9,198.4c0,3.8,3,6.8,6.8,6.8h4.8c3.8,0,6.8-3,6.8-6.8V178c0-3.8-3-6.8-6.8-6.8h-4.8
					c-3.8,0-6.8,3-6.8,6.8V198.4z"/>
			</g>
		</g>
		<g>
			<g>
				<rect x="123.9" y="171.2" class="st60" width="79.2" height="10.9"/>
			</g>
		</g>
		<g>
			<g>
				<path class="st56" d="M98.8,209l12.1-6.3c-14.1-27.2-15.2-51.8-3.2-73.1c9.1-16.2,22.7-24.5,22.8-24.6l-7-11.7
					c-0.7,0.4-16.4,10-27.3,29C86,140.1,78.3,169.4,98.8,209z"/>
			</g>
		</g>
		<g>
			<path class="st61" d="M107.6,129.6c-12,21.3-10.9,45.9,3.2,73.1l-5.6,2.9c-18.4-37.9-10.8-66.1-1-83.2c7-12.2,15.9-20.5,21.6-25
				l4.6,7.6C130.3,105.1,116.7,113.5,107.6,129.6z"/>
		</g>
		<g>
			<g>
				<path class="st53" d="M128.3,196.4c0,2.6,2.1,4.7,4.7,4.7c2.6,0,4.7-2.1,4.7-4.7c0-2.6-2.1-4.7-4.7-4.7
					C130.4,191.7,128.3,193.8,128.3,196.4z"/>
			</g>
		</g>
		<g>
			<g>
				
					<rect x="125.2" y="53.9" transform="matrix(0.8403 -0.542 0.542 0.8403 -24.4136 92.1177)" class="st62" width="37.9" height="67.2"/>
			</g>
		</g>
		<g>
			<g>
				
					<rect x="126.7" y="59" transform="matrix(0.8403 -0.5421 0.5421 0.8403 -28.4713 88.6329)" class="st63" width="19" height="67.2"/>
			</g>
		</g>
		<g>
			<g>
				
					<rect x="111.1" y="50.8" transform="matrix(0.8404 -0.542 0.542 0.8404 -10.3148 75.7654)" class="st64" width="24.8" height="9.2"/>
			</g>
		</g>
		<g>
			<g>
				
					<rect x="137.3" y="115.6" transform="matrix(0.8404 -0.542 0.542 0.8404 -38.3404 107.6367)" class="st53" width="52.5" height="6.6"/>
			</g>
		</g>
		<g>
			<g>
				<path class="st65" d="M111.8,99.9c0,7.5,6.1,13.6,13.6,13.6c7.5,0,13.6-6.1,13.6-13.6c0-7.5-6.1-13.6-13.6-13.6
					C117.8,86.3,111.8,92.4,111.8,99.9z"/>
			</g>
		</g>
		<g>
			<g>
				<path class="st7" d="M117.9,99.9c0,4.1,3.3,7.5,7.5,7.5c4.1,0,7.5-3.3,7.5-7.5c0-4.1-3.3-7.5-7.5-7.5
					C121.2,92.4,117.9,95.7,117.9,99.9z"/>
			</g>
		</g>
		<g>
			<g>
				<rect x="30" y="211.8" class="st1" width="243.8" height="4.7"/>
			</g>
		</g>
		<g>
			<g>
				<polygon class="st66" points="234.9,209.1 236.3,209.5 236,211.8 236.3,212.9 239.6,217.1 232.9,213.1 				"/>
			</g>
		</g>
		<g>
			<g>
				<polygon class="st67" points="234.5,206.9 233,207 232.7,209.3 232.2,210.3 228.1,213.6 235.5,211.2 				"/>
			</g>
		</g>
		<g>
			<g>
				<polygon class="st68" points="245.7,145.7 246.7,180.3 237,211.8 234.1,210.5 239.1,182.4 230.2,153.2 				"/>
			</g>
		</g>
		<g>
			<g>
				<polygon class="st57" points="232.4,152.2 232.4,181.1 235.8,209.1 232.4,209.1 225.6,180.6 219.4,145.7 				"/>
			</g>
		</g>
		<g>
			<g>
				<g>
					<path class="st52" d="M179.2,128.1c0,0-4.1-2.2-5-1.6c-0.8,0.4-2.7,3.3,4.5,3.4L179.2,128.1z"/>
				</g>
			</g>
			<g>
				<g>
					<path class="st69" d="M214.3,119.7l-9.6,18.5l-26.6-8.1l0.6-2.3l21.5,3.1l9.4-16c0,0,2.7-5.6,6.3-3.5
						C215.9,111.4,216.2,115.9,214.3,119.7z"/>
				</g>
			</g>
		</g>
		<g>
			<g>
				<path class="st70" d="M223.2,107.6c3.5-0.1,11.4,2.7,13.6,7.1c2.2,4.4,3.3,15.6,3.3,15.6l5.3,13.9c0,0-10.5,14.8-26.2,5.2
					c0,0-3.8-14.3-6.4-20.3c-1.5-3.5-6.4-13-2.1-16.5C217,107.6,219.7,107.7,223.2,107.6z"/>
			</g>
		</g>
		<g>
			<g>
				<path class="st71" d="M218.9,103.2l2.6,5c0,0-5.5,6.2-5.4,3.4c0-2.6-0.7-7.6-0.7-7.6L218.9,103.2z"/>
			</g>
		</g>
		<g>
			<g>
				<path class="st52" d="M217.5,97.1c0.7,1,2,2.9,1.7,4.5c-0.3,1.6-0.6,4.3-2.1,5.3c-1.5,1-2.8-0.2-3.2-0.8c-0.7-1-2.4-6.8-0.1-8.8
					C215.6,95.7,217,96.4,217.5,97.1z"/>
			</g>
		</g>
		<g>
			<g>
				<path class="st57" d="M213,98.5c0,0,1.4,0.9,3.1,0c1.7-0.9,1.9,1,1.9,1.2c0,0.2,0.3,2.8,1,2.7c0.6-0.1,0.8-3.5-0.7-5.4
					C217,95.1,213.5,95.6,213,98.5z"/>
			</g>
		</g>
		<g>
			<g>
				<path class="st57" d="M218.9,103.5c0,0-1.4,2.2-3.4,2.4c-1.2,0.1-2.3-1.8-2.4-2.3c-0.1-0.4,0.3,4.1,3,3.7
					C218.7,106.8,218.9,103.5,218.9,103.5z"/>
			</g>
		</g>
		<g>
			<g>
				<polygon class="st72" points="213,129 218.3,128.6 226.6,125.8 221.8,131.3 214.5,133 				"/>
			</g>
		</g>
		<g>
			<path class="st73" d="M223.2,107.6c0,0,0.8,15.6,7.1,28.9c6.2,13.3,10.8,28.2,10.8,28.2l12.5-6.6L243,131.7
				C243,131.7,238.4,106.7,223.2,107.6z"/>
		</g>
		<g>
			<path class="st73" d="M215.2,109.5c0,0,0.5,15.9,5.6,28.1c5.1,12.2,11.4,28.4,11.4,28.4l-10.7-1.7l-10.7-33.1
				C210.8,131.1,202.5,114.3,215.2,109.5z"/>
		</g>
		<g>
			<path class="st74" d="M223.2,107.6c0,0-0.1,14.9,8.1,31.1l5.1,12.5l-6.6-24.7l-1.7-0.1l-0.4-18.3l0,0l0,0
				c-0.5-0.1-1.7-0.5-2.2-0.5C224.8,107.6,223.2,107.6,223.2,107.6z"/>
		</g>
		<g>
			<path class="st75" d="M215.2,109.5c0,0,1.2,15.2,4.1,22.6c2.8,7.4,7.5,20.2,7.5,20.2l-11.7-21.4l1.2-1.1c0,0-2.9-4.3-4.4-9
				c-1-3.3-0.4-6.7-0.4-9.2C211.5,111.7,213.2,110,215.2,109.5z"/>
		</g>
		<g>
			<g>
				<g>
					<path class="st52" d="M225.9,148.2c0,0-3.9,2.4-3.9,3.5c0,0.9,1.4,4,5.3-2.1L225.9,148.2z"/>
				</g>
			</g>
			<g>
				<g>
					<path class="st53" d="M236.5,113.6l11.1,17.6l-20.5,18.8l-1.6-1.7l13.5-16.9l-9-16.2c0,0-4-7.1,0.2-7.2
						C232.3,108,234.2,110,236.5,113.6z"/>
				</g>
			</g>
		</g>
		<g>
			<g>
				<polygon class="st53" points="160.3,171.7 187.3,171.7 187.3,143.2 189.7,138.4 157.9,138.4 160.3,143.2 				"/>
			</g>
			<g>
				<rect x="163.4" y="146" class="st76" width="20.8" height="22.8"/>
			</g>
			<g>
				<path class="st77" d="M175.5,148c0,1.8,1.4,3.2,3.2,3.2c1.8,0,3.2-1.4,3.2-3.2c0-1.8-1.4-3.2-3.2-3.2
					C177,144.8,175.5,146.2,175.5,148z"/>
			</g>
			<g>
				<path class="st76" d="M176,149c0,1.6,1.3,3,3,3c1.6,0,3-1.3,3-3c0-1.6-1.3-3-3-3C177.4,146,176,147.4,176,149z"/>
			</g>
			<g>
				<path class="st77" d="M164.7,152.8c0,1.8,1.4,3.2,3.2,3.2c1.8,0,3.2-1.4,3.2-3.2c0-1.8-1.4-3.2-3.2-3.2
					C166.1,149.6,164.7,151,164.7,152.8z"/>
			</g>
			<g>
				<path class="st77" d="M174.7,159.4c0,1.1,0.9,2,2,2c1.1,0,2-0.9,2-2c0-1.1-0.9-2-2-2C175.6,157.3,174.7,158.3,174.7,159.4z"/>
			</g>
			<g>
				<path class="st77" d="M168.6,146c0,1.1,0.9,2,2,2c1.1,0,2-0.9,2-2c0-1.1-0.9-2-2-2C169.5,143.9,168.6,144.8,168.6,146z"/>
			</g>
			<g>
				<path class="st77" d="M169.9,140.3c0,0.7,0.6,1.3,1.3,1.3c0.7,0,1.3-0.6,1.3-1.3c0-0.7-0.6-1.3-1.3-1.3
					C170.4,139,169.9,139.6,169.9,140.3z"/>
			</g>
			<g>
				<circle class="st77" cx="170.6" cy="161.4" r="1.3"/>
			</g>
			<g>
				<path class="st77" d="M177.7,154.1c0,0.7,0.6,1.3,1.3,1.3c0.7,0,1.3-0.6,1.3-1.3c0-0.7-0.6-1.3-1.3-1.3
					C178.3,152.8,177.7,153.4,177.7,154.1z"/>
			</g>
			<g>
				<path class="st77" d="M165.1,165.7c0,1.1,0.9,1.9,1.9,1.9c1.1,0,1.9-0.9,1.9-1.9c0-1.1-0.9-1.9-1.9-1.9
					C165.9,163.8,165.1,164.6,165.1,165.7z"/>
			</g>
			<g>
				<path class="st76" d="M165.4,166.3c0,1,0.8,1.8,1.8,1.8c1,0,1.8-0.8,1.8-1.8c0-1-0.8-1.8-1.8-1.8
					C166.2,164.5,165.4,165.3,165.4,166.3z"/>
			</g>
		</g>
		<g>
			<g>
				<polygon class="st78" points="79.6,143.9 80.7,144 80.9,145.7 81.3,146.4 84.4,148.9 78.9,147.1 				"/>
			</g>
		</g>
		<g>
			<g>
				<polygon class="st78" points="75.7,140.9 76.5,141.6 75.8,143.1 75.7,144 76.9,147.7 73.3,143.2 				"/>
			</g>
		</g>
		<g>
			<g>
				<polygon class="st57" points="74.3,82.8 77.4,117 78.5,145.2 81.1,145.2 83.8,115.9 87.1,82.8 				"/>
			</g>
		</g>
		<g>
			<g>
				<polygon class="st57" points="98.7,82.8 97.8,114 76.9,142.6 74.3,141.2 88.7,115.5 83.6,84.6 83.6,82.8 				"/>
			</g>
		</g>
		<g>
			<g>
				<polygon class="st73" points="70.4,102.4 98.6,105.3 100.4,66.7 103.6,49.9 94.4,46.1 82.3,45 79.3,61.2 				"/>
			</g>
		</g>
		<g>
			<g>
				<polygon class="st73" points="70.4,102.4 98.6,105.3 100.4,66.7 103.6,49.9 94.4,46.1 82.3,45 79.3,61.2 				"/>
			</g>
		</g>
		<g>
			<g>
				<g>
					<path class="st52" d="M92.2,46.8c-0.2,0.8,3.2,1.5,3.4,0.6c0.6-2.4,0.5-4.3,0.5-4.3l-2.3-1.4C93.7,41.7,92.6,45,92.2,46.8z"/>
				</g>
			</g>
			<g>
				<g>
					<path class="st52" d="M95.3,44.4c0.2,0.1,2.3,0.8,2.8-0.1c0.5-1,1.1-4.8,0.8-5.8c-0.3-1-1.8-1.9-2.7-1.7c-0.8,0.2-3.3,2-2.9,6
						C93.4,42.7,94.1,44,95.3,44.4z"/>
				</g>
			</g>
			<g>
				<g>
					<path class="st57" d="M99.4,38.5c0,0-0.4,1.3-1.3,1c-0.9-0.3-2.4-0.9-2.7-0.2C95,40,95.2,42.5,94.6,43c-0.6,0.5-2,1-2.1,0.1
						c-0.1-0.9,0.4-6.4,3.4-7.1C96,35.9,98.9,35.9,99.4,38.5z"/>
				</g>
			</g>
		</g>
		<g>
			<g>
				<g>
					<path class="st52" d="M129,68.4c0,0,3.6-1.2,4.3-0.7c0.6,0.5,1.8,3.1-4.2,2.2L129,68.4z"/>
				</g>
			</g>
			<g>
				<g>
					<path class="st53" d="M101.1,56.7l5.4,16.5l23.1-3.1l-0.2-1.9l-18.1-0.4l-5.6-14.4c0,0-2.5-6.4-4.8-3.7
						C99.8,51,100,53.3,101.1,56.7z"/>
				</g>
			</g>
		</g>
		<g>
			<rect x="124.2" y="171.2" class="st59" width="78.8" height="4.7"/>
		</g>
		<g>
			<path class="st59" d="M131,196.4c0,1.1,0.9,2,2,2c1.1,0,2-0.9,2-2c0-1.1-0.9-2-2-2C131.9,194.3,131,195.3,131,196.4z"/>
		</g>
		<g>
			<polygon class="st79" points="82.3,45 70.4,102.4 90.2,104.4 82.3,45 			"/>
		</g>
	</g>
</g>
</svg>
